<svg width="250" height="36" viewBox="0 0 250 36" fill="none" xmlns="http://www.w3.org/2000/svg">
<path d="M7.53531 35.48C6.26331 35.48 4.70331 35.36 2.85531 35.12V30.44H6.09531C7.00731 30.44 7.59531 30.188 7.85931 29.684C8.14731 29.18 8.09931 28.472 7.71531 27.56L0.335312 9.92H6.99531L11.4953 22.16L15.2753 9.92H21.9353L14.7353 29.72C14.0393 31.616 13.1393 33.044 12.0353 34.004C10.9313 34.988 9.43131 35.48 7.53531 35.48ZM42.115 23.6C42.115 25.4 41.599 26.816 40.567 27.848C39.559 28.856 38.155 29.36 36.355 29.36H28.075C26.275 29.36 24.859 28.856 23.827 27.848C22.819 26.816 22.315 25.4 22.315 23.6V15.32C22.315 13.52 22.819 12.116 23.827 11.108C24.859 10.076 26.275 9.56 28.075 9.56H36.355C38.155 9.56 39.559 10.076 40.567 11.108C41.599 12.116 42.115 13.52 42.115 15.32V23.6ZM35.815 15.86C35.815 14.9 35.335 14.42 34.375 14.42H30.055C29.095 14.42 28.615 14.9 28.615 15.86V23.06C28.615 24.02 29.095 24.5 30.055 24.5H34.375C35.335 24.5 35.815 24.02 35.815 23.06V15.86ZM54.1708 24.14C55.4428 24.14 56.8828 23.9 58.4908 23.42V9.92H64.7908V29H59.2108L58.8508 27.2C57.7228 27.944 56.5588 28.496 55.3588 28.856C54.1828 29.192 53.1868 29.36 52.3708 29.36H50.7508C49.1188 29.36 47.8108 28.868 46.8268 27.884C45.8428 26.9 45.3508 25.592 45.3508 23.96V9.92H51.6508V22.88C51.6508 23.24 51.7708 23.54 52.0108 23.78C52.2508 24.02 52.5508 24.14 52.9108 24.14H54.1708ZM79.3581 15.14C77.8461 15.14 76.2861 15.5 74.6781 16.22V29H68.3781V9.92H73.9581L74.3181 12.26C76.3821 10.46 78.5421 9.56 80.7981 9.56H82.4181V15.14H79.3581ZM109.065 8.66C108.369 8.612 107.445 8.54 106.293 8.444C105.141 8.348 104.145 8.3 103.305 8.3C102.465 8.3 101.925 8.42 101.685 8.66C101.445 8.9 101.325 9.2 101.325 9.56V11.36H107.265V16.22H101.325V29H95.0252V16.22H92.5052V11.36H95.0252V8.84C95.0252 7.208 95.5172 5.9 96.5012 4.916C97.4852 3.932 98.7932 3.44 100.425 3.44C101.889 3.44 103.437 3.488 105.069 3.584C106.701 3.68 108.033 3.752 109.065 3.8V8.66ZM117.712 10.64V29H111.412V15.5H108.712V10.64H117.712ZM111.412 3.44H117.712V8.48H111.412V3.44ZM131.943 14.78C130.671 14.78 129.231 15.02 127.623 15.5V29H121.323V9.92H126.903L127.263 11.72C128.391 10.976 129.543 10.436 130.719 10.1C131.919 9.74 132.927 9.56 133.743 9.56H135.363C136.995 9.56 138.303 10.052 139.287 11.036C140.271 12.02 140.763 13.328 140.763 14.96V29H134.463V16.04C134.463 15.68 134.343 15.38 134.103 15.14C133.863 14.9 133.563 14.78 133.203 14.78H131.943ZM151.559 24.32C152.831 24.32 154.271 24.08 155.879 23.6V21.44H150.659C150.299 21.44 149.999 21.56 149.759 21.8C149.519 22.04 149.399 22.34 149.399 22.7V23.06C149.399 23.42 149.519 23.72 149.759 23.96C149.999 24.2 150.299 24.32 150.659 24.32H151.559ZM144.899 10.28C149.291 9.8 153.251 9.56 156.779 9.56C158.411 9.56 159.719 10.052 160.703 11.036C161.687 12.02 162.179 13.328 162.179 14.96V29H156.599L156.239 27.2C155.111 27.944 153.947 28.496 152.747 28.856C151.571 29.192 150.575 29.36 149.759 29.36H148.499C146.867 29.36 145.559 28.868 144.575 27.884C143.591 26.9 143.099 25.592 143.099 23.96V22.34C143.099 20.708 143.591 19.4 144.575 18.416C145.559 17.432 146.867 16.94 148.499 16.94H155.879V15.5C155.879 15.14 155.759 14.84 155.519 14.6C155.279 14.36 154.979 14.24 154.619 14.24C153.059 14.24 151.331 14.312 149.435 14.456C147.563 14.6 146.051 14.708 144.899 14.78V10.28ZM176.029 14.78C174.757 14.78 173.317 15.02 171.709 15.5V29H165.409V9.92H170.989L171.349 11.72C172.477 10.976 173.629 10.436 174.805 10.1C176.005 9.74 177.013 9.56 177.829 9.56H179.449C181.081 9.56 182.389 10.052 183.373 11.036C184.357 12.02 184.849 13.328 184.849 14.96V29H178.549V16.04C178.549 15.68 178.429 15.38 178.189 15.14C177.949 14.9 177.649 14.78 177.289 14.78H176.029ZM205.005 28.64C200.517 29.12 196.557 29.36 193.125 29.36C191.493 29.36 190.185 28.868 189.201 27.884C188.217 26.9 187.725 25.592 187.725 23.96V15.68C187.725 13.88 188.229 12.476 189.237 11.468C190.269 10.436 191.685 9.92 193.485 9.92H205.005V14.78H195.465C194.505 14.78 194.025 15.26 194.025 16.22V23.24C194.025 23.6 194.145 23.9 194.385 24.14C194.625 24.38 194.925 24.5 195.285 24.5C197.445 24.5 200.685 24.32 205.005 23.96V28.64ZM215.258 14.06C214.298 14.06 213.818 14.54 213.818 15.5V17.48H219.938V15.5C219.938 14.54 219.458 14.06 218.498 14.06H215.258ZM225.518 28.64C220.886 29.12 216.686 29.36 212.918 29.36C211.286 29.36 209.978 28.868 208.994 27.884C208.01 26.9 207.518 25.592 207.518 23.96V15.32C207.518 13.52 208.022 12.116 209.03 11.108C210.062 10.076 211.478 9.56 213.278 9.56H220.478C222.278 9.56 223.682 10.076 224.69 11.108C225.722 12.116 226.238 13.52 226.238 15.32V21.98H213.818V23.42C213.818 23.78 213.938 24.08 214.178 24.32C214.418 24.56 214.718 24.68 215.078 24.68C217.454 24.68 220.934 24.5 225.518 24.14V28.64Z" fill="white"/>
<path d="M84.2167 23.6H90.6967V29H84.2167V23.6ZM229.068 23.78C234.636 24.14 238.596 24.32 240.948 24.32C241.5 24.32 241.932 24.164 242.244 23.852C242.58 23.516 242.748 23.072 242.748 22.52V18.92H235.944C233.424 18.92 231.588 18.356 230.436 17.228C229.308 16.076 228.744 14.24 228.744 11.72V11C228.744 8.48 229.308 6.656 230.436 5.528C231.588 4.376 233.424 3.8 235.944 3.8H236.664L236.304 0.559999H241.704L241.344 3.8H247.104V8.84H237.384C235.944 8.84 235.224 9.56 235.224 11V11.72C235.224 13.16 235.944 13.88 237.384 13.88H242.388C244.74 13.88 246.468 14.432 247.572 15.536C248.676 16.64 249.228 18.368 249.228 20.72V22.52C249.228 24.872 248.676 26.6 247.572 27.704C246.492 28.808 244.776 29.36 242.424 29.36H241.416L241.704 32.6H236.304L236.664 29.18C233.88 29.036 231.348 28.856 229.068 28.64V23.78Z" fill="#F6C90E"/>
</svg>
